<svg preserveAspectRatio="none" width="100%" height="100%" overflow="visible" style="display: block;" viewBox="0 0 433 433" fill="none" xmlns="http://www.w3.org/2000/svg">
<g id="icon">
<g clip-path="url(#clip0_66_34)">
<rect width="433" height="433" rx="40" fill="var(--fill-0, white)"/>
<path id="Vector" d="M-19.1789 -34C-16.402 -33.0815 -6.5745 -25.7572 -3.70205 -23.8126L49.1767 12.2146C55.0856 16.1701 61.687 21.4478 67.7442 24.8457C76.6894 29.2448 88.8117 31.766 98.6927 32.964C130.605 36.8326 160.677 48.0992 182.56 72.5696C189.964 80.8504 205.358 101.855 193.415 112.252C203.998 121.992 215.151 135.803 216.143 150.733C218.763 171.208 191.682 162.525 183.434 170.243C172.732 180.257 181.954 205.565 158.147 206.067C148.78 205.208 141.571 202.94 133.727 197.68C131.965 196.499 129.911 195.174 128.521 193.584C127.867 194.764 127.016 196.518 126.235 197.553C118.556 207.736 102.159 201.997 92.6715 198.328C64.2676 187.345 41.6739 167.567 24.8312 142.393C21.9933 138.144 19.3287 133.781 16.8444 129.316C14.9614 125.913 9.73386 114.634 7.55916 112.499C4.79221 109.781 1.28319 107.572 -1.83214 105.258L-18.2397 93.0793C-36.5799 79.5843 -55.3262 65.8708 -73.4455 52.1518C-60.7045 31.6341 -47.8405 11.193 -34.8546 -9.17036C-30.0371 -16.8223 -23.4946 -26.396 -19.1789 -34ZM74.6882 134.937C79.355 134.792 84.0225 134.278 88.6796 133.935C99.5011 133.139 112.991 132.893 121.033 124.452C125.238 120.038 127.754 113.568 127.576 107.483C127.255 96.514 117.828 62.7049 109.799 55.1945C105.03 50.7338 98.4913 47.6359 91.8815 47.637C85.5247 48.1977 79.2837 49.5934 75.0459 54.8459C69.0639 62.5662 69.2451 70.97 63.6639 79.2507C55.8506 90.842 41.5157 89.7531 36.8504 103.582C33.8308 112.53 35.876 122.383 43.3337 128.514C52.35 135.926 63.6149 135.964 74.6882 134.937ZM132.691 138.192C128.76 138.907 125.642 139.406 123.141 142.986C120.546 146.702 120.618 150.863 121.419 155.113C124.473 171.3 142.139 190.911 160.093 188.661C177.003 185.151 173.209 169.29 165.002 159.463C157.694 150.712 144.479 138.928 132.691 138.192ZM177.167 153.62C208.684 158.574 200.362 115.926 160.359 110.779C151.386 110.017 142.102 111.879 140.964 122.953C140.455 127.913 144.139 133.342 147.42 136.793C155.837 144.842 165.967 150.69 177.167 153.62ZM103.802 186.907C105.554 186.952 107.057 187.01 108.792 186.706C114.812 185.65 118.76 179.222 118.514 173.313C117.953 159.849 108.813 145.18 95.2384 141.694C93.5916 141.271 90.9809 141.054 89.2623 140.891C85.1421 141.531 79.2994 142.906 76.9242 146.664C67.7298 161.214 83.3463 179.828 96.7066 185.053C98.3441 185.693 102.233 186.882 103.802 186.907ZM163.201 104.59C185.016 102.948 182.097 85.7553 168.954 75.298C164.184 71.5023 155.144 66.9257 149.001 67.5176C132.1 66.9381 127.872 83.1988 138.749 93.8196C145.446 100.359 153.95 103.868 163.201 104.59Z" fill="var(--fill-0, #EFAE53)"/>
<path id="Vector_2" d="M478.991 -4.0367C480.329 -3.48785 527.655 78.7336 532.672 86.8258C506.835 102.646 481.48 119.346 455.912 135.599C451.404 138.463 427.124 153.129 425.093 155.562C420.265 161.352 416.06 167.651 411.164 173.397C393.882 193.68 371.589 211.551 345.569 218.933C341.347 220.116 337.02 220.873 332.649 221.192C330.845 221.325 325.562 221.41 324.219 221.904C318.531 224 312.742 226.241 306.934 228.086C307.209 224.36 307.34 221.613 308.095 217.932C299.056 220.281 293.937 219.498 284.782 217.308C283.17 216.923 280.022 215.38 278.711 215.604C274.595 216.309 270.473 218.018 266.228 219.053C264.751 219.66 260.741 219.947 259.134 220.051C260.025 213.419 262.246 209.741 265.424 203.836C256.442 201.32 251.265 197.077 246.075 189.389C241.548 191.001 233.503 193.097 228.833 193.914C229.343 187.323 233.481 181.742 236.951 176.087C230.788 164.573 233.795 152.551 239.258 141.602C234.894 142.909 230.525 144.193 226.145 145.454C226.278 144.708 226.435 143.966 226.614 143.229C229.252 132.693 238.229 126.028 244.555 118.397C248.624 113.077 252.529 107.903 257.38 103.22C280.883 80.5269 314.292 72.8423 345.515 67.5882C352.051 66.489 361.42 66.5502 367.267 64.1415C370.895 62.6471 376.894 58.4402 380.519 56.1943L401.256 43.5668L478.991 -4.0367ZM304.881 186.817C334.412 181.132 342.23 147.739 313.94 152.023C304.954 154.355 294.677 159.36 289.862 167.564C282.49 180.134 292.282 188.878 304.881 186.817ZM308.451 115.371C331.413 112.567 337.644 86.6946 315.369 88.2522C308.904 89.2883 300.959 91.689 297.05 97.4862C289.815 108.208 296.173 116.488 308.451 115.371ZM352.987 89.0001C341.028 92.0824 337.705 102.688 333.116 112.652C331.534 116.08 328.464 119.445 326.707 122.832C321.697 132.228 325.062 141.7 333.958 147.045C340.576 151.024 346.396 149.287 353.519 151.128C357.841 152.291 362.655 154.758 366.904 156.415C384.686 163.302 398.963 147.899 392.115 130.455C389.565 123.967 386.679 120.242 383.826 114.385C377.703 101.812 370.283 85.3214 352.987 89.0001ZM265.063 215.061L270.143 213.213C276.628 210.857 282.82 207.762 288.594 203.988C287.707 202.269 284.063 196.497 282.474 195.822L281.856 195.888C274.064 200.812 268.513 206.241 265.063 215.061ZM316.519 220.23C323.213 216.439 327.078 213.298 332.593 207.882C331.552 206.357 328.812 201.552 327.104 201.663C318.514 208.476 315.842 211.973 312.362 222.521C313.715 221.734 315.1 220.876 316.519 220.23ZM348.011 190.983C371.737 185.672 376.022 157.996 352.753 161.558C345.908 163.928 337.804 167.617 334.742 174.547C329.431 186.567 336.227 192.952 348.011 190.983ZM256.56 177.924C255.693 176.511 252.229 170.788 251.288 170.072C244.962 174.836 238.465 180.432 235.435 188.039C236.666 187.491 238.022 186.848 239.265 186.361C245.095 184.371 251.026 180.833 256.56 177.924ZM250.338 124.294C241.37 127.909 237.363 131.346 232.379 139.401L237.173 137.578C244.24 135.175 249.233 133.428 256.522 132.003C255.473 130.095 253.061 125.272 251.411 124.242C251.237 124.247 250.481 124.262 250.338 124.294ZM290.025 153.399C299.992 151.478 313.797 143.767 311.514 131.673C310.956 128.619 309.187 125.921 306.608 124.194C302.903 121.736 297.047 121.1 292.726 121.929C265.247 127.564 263.013 157.515 290.025 153.399Z" fill="var(--fill-0, #888888)"/>
<path id="Vector_3" d="M200.626 178.687C213.538 176.389 220.954 188.793 222.269 199.827C224.768 220.794 223.993 241.777 224.993 262.814C225.223 267.677 224.759 273.587 225.435 278.305L230.774 278.803C230.496 274.348 230.635 268.349 230.499 263.669L229.372 216.653C261.571 213.87 258.04 232.181 260.283 256.854C260.655 260.952 261.107 265.219 261.498 269.353C261.927 273.861 261.987 278.856 262.675 283.271L262.741 283.663C264.868 283.934 265.67 284.091 267.743 284.681C267.452 282.848 267.323 280.753 267.245 278.879C266.629 264.575 264.84 250.36 264.054 236.078C291.831 235.475 291.399 255.026 292.519 276.459L293.712 296.322C295.302 297 297.016 297.584 298.648 298.174C297.58 288.348 296.946 271.069 296.978 261.249C307.83 263.247 312.815 267.087 315.021 278.238C316.394 285.187 316.567 292.106 316.577 299.188C316.621 328.442 311.402 358.939 299.638 385.81C296.817 392.185 292.677 397.429 288.916 403.15C288.66 414.645 288.941 427.327 288.989 438.898C289.026 445.998 289.411 458.332 288.849 465.088C252.331 465.325 214.302 465.492 177.832 465.066C177.534 458.67 177.838 450.819 177.869 444.297L177.783 415.588C177.806 410.452 178.042 403.547 177.656 398.473C177.572 397.372 172.015 391.844 170.869 390.626C161.944 381.033 154.692 370.008 149.413 358.014C141.748 340.824 140.431 323.715 134.93 306.167C132.505 298.503 129.837 290.914 126.932 283.416C123.182 273.735 115.138 260.06 125.272 251.887C144.422 236.447 167.429 257.57 171.532 276.733C174.168 289.049 168.566 304.432 173.24 316.662C174.248 319.303 176.011 321.471 177.806 323.566C177.768 316.539 177.436 309.408 177.453 302.403C177.505 275.31 178.673 248.23 180.955 221.234C181.904 211.044 182.12 196.833 187.186 187.617C189.99 182.514 195.08 180.069 200.626 178.687ZM192.222 219.973C196.669 219.556 199.758 219.595 204.203 219.551C207.368 219.477 210.534 219.447 213.699 219.461C213.614 210.826 215.621 185.599 202.438 186.278C202.235 186.289 202.032 186.303 201.829 186.319C198.921 187.14 196.92 188.165 195.453 191.081C191.494 198.949 192.201 211.23 192.222 219.973ZM140.729 287.209C143.4 284.331 145.816 281.223 145.606 277.036C145.259 270.144 139.218 257.725 131.364 257.838C125.655 259.359 128.563 265.588 130.237 269.289C131.22 271.463 132.714 275.465 133.937 277.339C136.197 280.807 137.155 285.073 139.025 288.358C139.817 288.386 140.212 287.847 140.729 287.209Z" fill="var(--fill-0, #FFE1C2)"/>
</g>
</g>
<defs>
<clipPath id="clip0_66_34">
<rect width="433" height="433" rx="40" fill="white"/>
</clipPath>
</defs>
</svg>
